<svg width="104" height="97" viewBox="0 0 104 97" fill="none" xmlns="http://www.w3.org/2000/svg">
<path d="M3.80266 27.3217C-5.74736 49.7163 11.3856 59.3785 21.1459 61.4103L18.2178 67.2799C11.0102 83.534 19.7194 92.4136 24.9749 94.8216C28.9541 95.7999 37.8133 96.8082 41.4171 93.0156C45.0209 89.223 47.8739 88.7263 48.8499 88.9521H52.4537C55.6971 88.7715 57.5591 90.0808 58.0846 90.7581C64.5714 96.7179 72.1994 96.4019 75.2026 95.4989C76.9294 94.9721 81.4641 92.4738 85.7887 86.6946C90.1132 80.9153 86.2391 69.6879 83.7615 64.7966C90.7889 64.2548 97.6511 56.4438 100.204 52.606C102.456 47.1127 105.474 34.7264 99.5281 29.1277C93.5818 23.5291 85.7887 26.795 82.6354 29.1277C82.9957 28.2247 82.9357 25.2899 82.8606 23.9354C82.4852 17.3134 79.3469 3.75319 69.7969 2.48898C60.2469 1.22477 54.2556 9.18629 52.4537 13.3251C51.9131 12.2415 49.5256 9.11104 48.3994 7.68128C42.9938 2.26322 34.4348 2.71473 30.831 3.61774C22.1819 5.42375 20.1698 18.8184 20.2449 25.29C10.8751 21.4973 5.37932 25.0642 3.80266 27.3217Z" fill="#736864" stroke="#736864"/>
<path d="M51.8752 12.8434C51.8752 36.8634 48.1212 44.3734 46.2443 45.1259C42.2801 45.4871 39.337 44.9754 38.361 44.6744C33.1355 43.2296 27.1743 38.9554 24.8468 36.9989C23.5705 36.2464 20.7475 32.7096 19.6664 24.5825C18.5853 16.4554 22.2191 9.15609 24.1711 6.52232C30.8381 -0.882358 39.1118 0.728008 42.4153 2.45877C49.4426 6.61262 51.6499 11.1126 51.8752 12.8434Z" fill="#C9BFB6" stroke="#C9BFB6"/>
<path d="M78.256 68.7257C70.3277 50.4849 56.7835 44.8712 51.0024 44.3444C48.4798 44.3444 46.3475 45.0969 45.5968 45.4732C43.0741 46.015 35.9867 52.02 32.7583 54.9548C29.0044 58.2658 21.5415 67.4615 21.7217 77.7558C21.9019 88.0501 30.2056 88.8176 34.3349 87.9146C36.287 87.4631 40.8217 85.9731 43.3444 83.6253C45.867 81.2775 47.9993 80.841 48.7501 80.9163H53.2548C55.2369 80.7357 57.8346 82.647 58.8857 83.6253C63.1652 86.2591 72.8053 90.443 77.1298 86.1086C81.4544 81.7741 79.6825 72.714 78.256 68.7257Z" fill="#3F2B25" stroke="#3F2B25"/>
<path d="M7.76624 45.2392C11.9614 55.3471 19.6575 55.8083 22.9812 54.7754C25.7467 53.9046 29.8099 49.4297 23.9379 38.4965C18.066 27.5632 11.6163 27.8951 9.12546 29.4277C6.92439 30.4866 3.57106 35.1313 7.76624 45.2392Z" fill="#3F2B25" stroke="#3F2B25"/>
<path d="M95.3683 46.1422C91.1731 56.2501 83.477 56.7112 80.1533 55.6784C77.3878 54.8076 73.3247 50.3327 79.1966 39.3995C85.0685 28.4662 91.5182 28.7981 94.0091 30.3307C96.2101 31.3896 99.5635 36.0343 95.3683 46.1422Z" fill="#3F2B25" stroke="#3F2B25"/>
<path d="M76.6624 23.6389C76.6624 36.281 68.5538 40.194 64.4996 40.5703C61.121 40.8713 54.7243 37.9064 56.1659 23.6389C57.6074 9.37132 64.7248 6.85794 68.1034 7.3847C70.9564 7.5352 76.6624 10.9967 76.6624 23.6389Z" fill="#3F2B25" stroke="#3F2B25"/>
<path d="M27.5779 23.6389C27.5779 36.281 35.6864 40.194 39.7406 40.5703C43.1192 40.8713 49.5159 37.9064 48.0744 23.6389C46.6329 9.37132 39.5154 6.85794 36.1369 7.3847C33.2839 7.5352 27.5779 10.9967 27.5779 23.6389Z" fill="#9B7472" stroke="#9B7472"/>
</svg>
